<?xml version="1.0" encoding="utf-8"?>
<!-- Generator: Adobe Illustrator 26.0.3, SVG Export Plug-In . SVG Version: 6.00 Build 0)  -->
<svg version="1.1" id="Layer_1" xmlns="http://www.w3.org/2000/svg" xmlns:xlink="http://www.w3.org/1999/xlink" x="0px" y="0px"
	 viewBox="0 0 400 200" style="enable-background:new 0 0 400 200;" xml:space="preserve">
<style type="text/css">
	.st0{fill:#FDC110;}
</style>
<g>
	<polygon class="st0" points="129.9,110.7 123,105.7 115.9,110.6 118.5,102.4 111.7,97.2 120.3,97.2 123.1,89.1 125.8,97.3 
		134.4,97.4 127.4,102.5 	"/>
	<polygon class="st0" points="168.6,110.7 161.6,105.7 154.5,110.6 157.2,102.4 150.3,97.2 158.9,97.2 161.7,89.1 164.4,97.3 
		173,97.4 166.1,102.5 	"/>
	<polygon class="st0" points="207.2,110.7 200.3,105.7 193.2,110.6 195.8,102.4 189,97.2 197.6,97.2 200.4,89.1 203.1,97.3 
		211.7,97.4 204.7,102.5 	"/>
	<polygon class="st0" points="245.9,110.7 238.9,105.7 231.8,110.6 234.5,102.4 227.6,97.2 236.2,97.2 239,89.1 241.7,97.3 
		250.3,97.4 243.4,102.5 	"/>
	<polygon class="st0" points="284.5,110.7 277.5,105.7 270.5,110.6 273.1,102.4 266.3,97.2 274.9,97.2 277.7,89.1 280.4,97.3 
		289,97.4 282,102.5 	"/>
</g>
</svg>
